# MagicaVoxel @ Ephtracy

# group
o 

# material
mtllib Coin.mtl
usemtl palette

# normals
vn -1 0 0
vn 1 0 0
vn 0 0 1
vn 0 0 -1
vn 0 -1 0
vn 0 1 0

# texcoords
vt 0.0214844 0.5
vt 0.779297 0.5
vt 0.841797 0.5
vt 0.994141 0.5

# verts
v -1 0.9 0.7
v -1 0.9 0.2
v -1 1 0.7
v -1 1 0.3
v -1 1.1 0.5
v -1 1.1 0.4
v -1 1.2 0.5
v -1 1.2 0.4
v -1 1.3 0.7
v -1 1.3 0.3
v -1 1.4 0.7
v -1 1.4 0.2
v -0.9 0.8 0.7
v -0.9 0.8 0.2
v -0.9 0.9 0.8
v -0.9 0.9 0.7
v -0.9 0.9 0.2
v -0.9 0.9 0.1
v -0.9 1 0.8
v -0.9 1 0.7
v -0.9 1 0.5
v -0.9 1 0.4
v -0.9 1.1 0.6
v -0.9 1.1 0.5
v -0.9 1.1 0.4
v -0.9 1.1 0.3
v -0.9 1.2 0.6
v -0.9 1.2 0.5
v -0.9 1.2 0.4
v -0.9 1.2 0.3
v -0.9 1.3 0.8
v -0.9 1.3 0.7
v -0.9 1.3 0.5
v -0.9 1.3 0.4
v -0.9 1.4 0.8
v -0.9 1.4 0.7
v -0.9 1.4 0.2
v -0.9 1.4 0.1
v -0.9 1.5 0.7
v -0.9 1.5 0.2
v -0.8 0.6 0.7
v -0.8 0.6 0.2
v -0.8 0.7 0.8
v -0.8 0.7 0.7
v -0.8 0.7 0.2
v -0.8 0.7 0.1
v -0.8 0.8 0.9
v -0.8 0.8 0.8
v -0.8 0.8 0.7
v -0.8 0.8 0.2
v -0.8 0.8 0.1
v -0.8 0.8 0
v -0.8 0.9 1
v -0.8 0.9 0.9
v -0.8 0.9 0.8
v -0.8 0.9 0.7
v -0.8 0.9 0.2
v -0.8 0.9 0.1
v -0.8 0.9 0
v -0.8 0.9 -0.1
v -0.8 1 0.8
v -0.8 1 0.5
v -0.8 1 0.4
v -0.8 1 0.3
v -0.8 1.1 0.6
v -0.8 1.1 0.5
v -0.8 1.1 0.4
v -0.8 1.1 0.3
v -0.8 1.2 0.6
v -0.8 1.2 0.5
v -0.8 1.2 0.4
v -0.8 1.2 0.3
v -0.8 1.3 0.8
v -0.8 1.3 0.5
v -0.8 1.3 0.4
v -0.8 1.3 0.3
v -0.8 1.4 1
v -0.8 1.4 0.9
v -0.8 1.4 0.8
v -0.8 1.4 0.7
v -0.8 1.4 0.2
v -0.8 1.4 0.1
v -0.8 1.4 0
v -0.8 1.4 -0.1
v -0.8 1.5 0.9
v -0.8 1.5 0.8
v -0.8 1.5 0.7
v -0.8 1.5 0.2
v -0.8 1.5 0.1
v -0.8 1.5 0
v -0.8 1.6 0.8
v -0.8 1.6 0.7
v -0.8 1.6 0.2
v -0.8 1.6 0.1
v -0.8 1.7 0.7
v -0.8 1.7 0.2
v -0.7 0.6 0.7
v -0.7 0.6 0.2
v -0.7 0.7 0.8
v -0.7 0.7 0.7
v -0.7 0.7 0.2
v -0.7 0.7 0.1
v -0.7 0.8 0.9
v -0.7 0.8 0.8
v -0.7 0.8 0.7
v -0.7 0.8 0.6
v -0.7 0.8 0.3
v -0.7 0.8 0.2
v -0.7 0.8 0.1
v -0.7 0.8 0
v -0.7 0.9 1
v -0.7 0.9 0.9
v -0.7 0.9 0.8
v -0.7 0.9 0.7
v -0.7 0.9 0.6
v -0.7 0.9 0.3
v -0.7 0.9 0.2
v -0.7 0.9 0.1
v -0.7 0.9 0
v -0.7 0.9 -0.1
v -0.7 1 0.8
v -0.7 1 0.7
v -0.7 1 0.2
v -0.7 1 0.1
v -0.7 1.3 0.8
v -0.7 1.3 0.7
v -0.7 1.3 0.2
v -0.7 1.3 0.1
v -0.7 1.4 1
v -0.7 1.4 0.9
v -0.7 1.4 0.8
v -0.7 1.4 0.7
v -0.7 1.4 0.6
v -0.7 1.4 0.3
v -0.7 1.4 0.2
v -0.7 1.4 0.1
v -0.7 1.4 0
v -0.7 1.4 -0.1
v -0.7 1.5 0.9
v -0.7 1.5 0.8
v -0.7 1.5 0.7
v -0.7 1.5 0.6
v -0.7 1.5 0.3
v -0.7 1.5 0.2
v -0.7 1.5 0.1
v -0.7 1.5 0
v -0.7 1.6 0.8
v -0.7 1.6 0.7
v -0.7 1.6 0.2
v -0.7 1.6 0.1
v -0.7 1.7 0.7
v -0.7 1.7 0.2
v -0.6 0.8 0.6
v -0.6 0.8 0.3
v -0.6 0.9 0.7
v -0.6 0.9 0.6
v -0.6 0.9 0.3
v -0.6 0.9 0.2
v -0.6 1 0.8
v -0.6 1 0.7
v -0.6 1 0.6
v -0.6 1 0.3
v -0.6 1 0.2
v -0.6 1 0.1
v -0.6 1.1 0.5
v -0.6 1.1 0.4
v -0.6 1.2 0.5
v -0.6 1.2 0.4
v -0.6 1.3 0.8
v -0.6 1.3 0.7
v -0.6 1.3 0.6
v -0.6 1.3 0.3
v -0.6 1.3 0.2
v -0.6 1.3 0.1
v -0.6 1.4 0.7
v -0.6 1.4 0.6
v -0.6 1.4 0.3
v -0.6 1.4 0.2
v -0.6 1.5 0.6
v -0.6 1.5 0.3
v -0.5 0.9 0.6
v -0.5 0.9 0.3
v -0.5 1 0.7
v -0.5 1 0.6
v -0.5 1 0.3
v -0.5 1 0.2
v -0.5 1.1 0.5
v -0.5 1.1 0.4
v -0.5 1.2 0.5
v -0.5 1.2 0.4
v -0.5 1.3 0.7
v -0.5 1.3 0.6
v -0.5 1.3 0.3
v -0.5 1.3 0.2
v -0.5 1.4 0.6
v -0.5 1.4 0.3
v -0.8 0.9 1
v -0.8 1.4 1
v -0.7 0.9 1
v -0.7 1.4 1
v -0.8 0.8 0.9
v -0.8 0.9 0.9
v -0.8 1.4 0.9
v -0.8 1.5 0.9
v -0.7 0.8 0.9
v -0.7 0.9 0.9
v -0.7 1.4 0.9
v -0.7 1.5 0.9
v -0.9 0.9 0.8
v -0.9 1 0.8
v -0.9 1.3 0.8
v -0.9 1.4 0.8
v -0.8 0.7 0.8
v -0.8 0.8 0.8
v -0.8 0.9 0.8
v -0.8 1 0.8
v -0.8 1.3 0.8
v -0.8 1.4 0.8
v -0.8 1.5 0.8
v -0.8 1.6 0.8
v -0.7 0.7 0.8
v -0.7 0.8 0.8
v -0.7 1 0.8
v -0.7 1.3 0.8
v -0.7 1.5 0.8
v -0.7 1.6 0.8
v -0.6 1 0.8
v -0.6 1.3 0.8
v -1 0.9 0.7
v -1 1 0.7
v -1 1.3 0.7
v -1 1.4 0.7
v -0.9 0.8 0.7
v -0.9 0.9 0.7
v -0.9 1 0.7
v -0.9 1.3 0.7
v -0.9 1.4 0.7
v -0.9 1.5 0.7
v -0.8 0.6 0.7
v -0.8 0.7 0.7
v -0.8 0.8 0.7
v -0.8 0.9 0.7
v -0.8 1.4 0.7
v -0.8 1.5 0.7
v -0.8 1.6 0.7
v -0.8 1.7 0.7
v -0.7 0.6 0.7
v -0.7 0.7 0.7
v -0.7 0.9 0.7
v -0.7 1 0.7
v -0.7 1.3 0.7
v -0.7 1.4 0.7
v -0.7 1.6 0.7
v -0.7 1.7 0.7
v -0.6 0.9 0.7
v -0.6 1 0.7
v -0.6 1.3 0.7
v -0.6 1.4 0.7
v -0.5 1 0.7
v -0.5 1.3 0.7
v -0.9 1.1 0.6
v -0.9 1.2 0.6
v -0.8 1.1 0.6
v -0.8 1.2 0.6
v -0.7 0.8 0.6
v -0.7 0.9 0.6
v -0.7 1.4 0.6
v -0.7 1.5 0.6
v -0.6 0.8 0.6
v -0.6 0.9 0.6
v -0.6 1 0.6
v -0.6 1.3 0.6
v -0.6 1.4 0.6
v -0.6 1.5 0.6
v -0.5 0.9 0.6
v -0.5 1 0.6
v -0.5 1.3 0.6
v -0.5 1.4 0.6
v -1 1.1 0.5
v -1 1.2 0.5
v -0.9 1 0.5
v -0.9 1.1 0.5
v -0.9 1.2 0.5
v -0.9 1.3 0.5
v -0.8 1 0.5
v -0.8 1.1 0.5
v -0.8 1.2 0.5
v -0.8 1.3 0.5
v -0.6 1.1 0.4
v -0.6 1.2 0.4
v -0.5 1.1 0.4
v -0.5 1.2 0.4
v -1 1 0.3
v -1 1.3 0.3
v -0.9 1.1 0.3
v -0.9 1.2 0.3
v -0.8 1 0.3
v -0.8 1.1 0.3
v -0.8 1.2 0.3
v -0.8 1.3 0.3
v -0.6 1.1 0.5
v -0.6 1.2 0.5
v -0.5 1.1 0.5
v -0.5 1.2 0.5
v -1 1.1 0.4
v -1 1.2 0.4
v -0.9 1 0.4
v -0.9 1.1 0.4
v -0.9 1.2 0.4
v -0.9 1.3 0.4
v -0.8 1 0.4
v -0.8 1.1 0.4
v -0.8 1.2 0.4
v -0.8 1.3 0.4
v -0.7 0.8 0.3
v -0.7 0.9 0.3
v -0.7 1.4 0.3
v -0.7 1.5 0.3
v -0.6 0.8 0.3
v -0.6 0.9 0.3
v -0.6 1 0.3
v -0.6 1.3 0.3
v -0.6 1.4 0.3
v -0.6 1.5 0.3
v -0.5 0.9 0.3
v -0.5 1 0.3
v -0.5 1.3 0.3
v -0.5 1.4 0.3
v -1 0.9 0.2
v -1 1.4 0.2
v -0.9 0.8 0.2
v -0.9 0.9 0.2
v -0.9 1.4 0.2
v -0.9 1.5 0.2
v -0.8 0.6 0.2
v -0.8 0.7 0.2
v -0.8 0.8 0.2
v -0.8 0.9 0.2
v -0.8 1.4 0.2
v -0.8 1.5 0.2
v -0.8 1.6 0.2
v -0.8 1.7 0.2
v -0.7 0.6 0.2
v -0.7 0.7 0.2
v -0.7 0.9 0.2
v -0.7 1 0.2
v -0.7 1.3 0.2
v -0.7 1.4 0.2
v -0.7 1.6 0.2
v -0.7 1.7 0.2
v -0.6 0.9 0.2
v -0.6 1 0.2
v -0.6 1.3 0.2
v -0.6 1.4 0.2
v -0.5 1 0.2
v -0.5 1.3 0.2
v -0.9 0.9 0.1
v -0.9 1.4 0.1
v -0.8 0.7 0.1
v -0.8 0.8 0.1
v -0.8 0.9 0.1
v -0.8 1.4 0.1
v -0.8 1.5 0.1
v -0.8 1.6 0.1
v -0.7 0.7 0.1
v -0.7 0.8 0.1
v -0.7 1 0.1
v -0.7 1.3 0.1
v -0.7 1.5 0.1
v -0.7 1.6 0.1
v -0.6 1 0.1
v -0.6 1.3 0.1
v -0.8 0.8 0
v -0.8 0.9 0
v -0.8 1.4 0
v -0.8 1.5 0
v -0.7 0.8 0
v -0.7 0.9 0
v -0.7 1.4 0
v -0.7 1.5 0
v -0.8 0.9 -0.1
v -0.8 1.4 -0.1
v -0.7 0.9 -0.1
v -0.7 1.4 -0.1
v -0.8 0.6 0.7
v -0.7 0.6 0.7
v -0.8 0.6 0.2
v -0.7 0.6 0.2
v -0.8 0.7 0.8
v -0.7 0.7 0.8
v -0.8 0.7 0.7
v -0.7 0.7 0.7
v -0.8 0.7 0.2
v -0.7 0.7 0.2
v -0.8 0.7 0.1
v -0.7 0.7 0.1
v -0.8 0.8 0.9
v -0.7 0.8 0.9
v -0.8 0.8 0.8
v -0.7 0.8 0.8
v -0.9 0.8 0.7
v -0.8 0.8 0.7
v -0.7 0.8 0.6
v -0.6 0.8 0.6
v -0.7 0.8 0.3
v -0.6 0.8 0.3
v -0.9 0.8 0.2
v -0.8 0.8 0.2
v -0.8 0.8 0.1
v -0.7 0.8 0.1
v -0.8 0.8 0
v -0.7 0.8 0
v -0.8 0.9 1
v -0.7 0.9 1
v -0.8 0.9 0.9
v -0.7 0.9 0.9
v -0.9 0.9 0.8
v -0.8 0.9 0.8
v -1 0.9 0.7
v -0.9 0.9 0.7
v -0.8 0.9 0.7
v -0.7 0.9 0.7
v -0.6 0.9 0.7
v -0.7 0.9 0.6
v -0.6 0.9 0.6
v -0.5 0.9 0.6
v -0.7 0.9 0.3
v -0.6 0.9 0.3
v -0.5 0.9 0.3
v -1 0.9 0.2
v -0.9 0.9 0.2
v -0.8 0.9 0.2
v -0.7 0.9 0.2
v -0.6 0.9 0.2
v -0.9 0.9 0.1
v -0.8 0.9 0.1
v -0.8 0.9 0
v -0.7 0.9 0
v -0.8 0.9 -0.1
v -0.7 0.9 -0.1
v -0.7 1 0.8
v -0.6 1 0.8
v -0.7 1 0.7
v -0.6 1 0.7
v -0.5 1 0.7
v -0.6 1 0.6
v -0.5 1 0.6
v -0.6 1 0.3
v -0.5 1 0.3
v -0.7 1 0.2
v -0.6 1 0.2
v -0.5 1 0.2
v -0.7 1 0.1
v -0.6 1 0.1
v -0.9 1.1 0.6
v -0.8 1.1 0.6
v -1 1.1 0.5
v -0.9 1.1 0.5
v -0.8 1.1 0.5
v -1 1.1 0.4
v -0.9 1.1 0.4
v -0.8 1.1 0.4
v -0.9 1.1 0.3
v -0.8 1.1 0.3
v -0.6 1.2 0.5
v -0.5 1.2 0.5
v -0.6 1.2 0.4
v -0.5 1.2 0.4
v -0.9 1.3 0.8
v -0.8 1.3 0.8
v -1 1.3 0.7
v -0.9 1.3 0.7
v -0.9 1.3 0.5
v -0.8 1.3 0.5
v -0.9 1.3 0.4
v -0.8 1.3 0.4
v -1 1.3 0.3
v -0.8 1.3 0.3
v -0.9 1 0.8
v -0.8 1 0.8
v -1 1 0.7
v -0.9 1 0.7
v -0.9 1 0.5
v -0.8 1 0.5
v -0.9 1 0.4
v -0.8 1 0.4
v -1 1 0.3
v -0.8 1 0.3
v -0.6 1.1 0.5
v -0.5 1.1 0.5
v -0.6 1.1 0.4
v -0.5 1.1 0.4
v -0.9 1.2 0.6
v -0.8 1.2 0.6
v -1 1.2 0.5
v -0.9 1.2 0.5
v -0.8 1.2 0.5
v -1 1.2 0.4
v -0.9 1.2 0.4
v -0.8 1.2 0.4
v -0.9 1.2 0.3
v -0.8 1.2 0.3
v -0.7 1.3 0.8
v -0.6 1.3 0.8
v -0.7 1.3 0.7
v -0.6 1.3 0.7
v -0.5 1.3 0.7
v -0.6 1.3 0.6
v -0.5 1.3 0.6
v -0.6 1.3 0.3
v -0.5 1.3 0.3
v -0.7 1.3 0.2
v -0.6 1.3 0.2
v -0.5 1.3 0.2
v -0.7 1.3 0.1
v -0.6 1.3 0.1
v -0.8 1.4 1
v -0.7 1.4 1
v -0.8 1.4 0.9
v -0.7 1.4 0.9
v -0.9 1.4 0.8
v -0.8 1.4 0.8
v -1 1.4 0.7
v -0.9 1.4 0.7
v -0.8 1.4 0.7
v -0.7 1.4 0.7
v -0.6 1.4 0.7
v -0.7 1.4 0.6
v -0.6 1.4 0.6
v -0.5 1.4 0.6
v -0.7 1.4 0.3
v -0.6 1.4 0.3
v -0.5 1.4 0.3
v -1 1.4 0.2
v -0.9 1.4 0.2
v -0.8 1.4 0.2
v -0.7 1.4 0.2
v -0.6 1.4 0.2
v -0.9 1.4 0.1
v -0.8 1.4 0.1
v -0.8 1.4 0
v -0.7 1.4 0
v -0.8 1.4 -0.1
v -0.7 1.4 -0.1
v -0.8 1.5 0.9
v -0.7 1.5 0.9
v -0.8 1.5 0.8
v -0.7 1.5 0.8
v -0.9 1.5 0.7
v -0.8 1.5 0.7
v -0.7 1.5 0.6
v -0.6 1.5 0.6
v -0.7 1.5 0.3
v -0.6 1.5 0.3
v -0.9 1.5 0.2
v -0.8 1.5 0.2
v -0.8 1.5 0.1
v -0.7 1.5 0.1
v -0.8 1.5 0
v -0.7 1.5 0
v -0.8 1.6 0.8
v -0.7 1.6 0.8
v -0.8 1.6 0.7
v -0.7 1.6 0.7
v -0.8 1.6 0.2
v -0.7 1.6 0.2
v -0.8 1.6 0.1
v -0.7 1.6 0.1
v -0.8 1.7 0.7
v -0.7 1.7 0.7
v -0.8 1.7 0.2
v -0.7 1.7 0.2

# faces
f 3/2/1 2/2/1 1/2/1
f 4/2/1 2/2/1 3/2/1
f 7/3/1 6/3/1 5/3/1
f 8/3/1 6/3/1 7/3/1
f 10/2/1 2/2/1 4/2/1
f 11/2/1 10/2/1 9/2/1
f 12/2/1 2/2/1 10/2/1
f 12/2/1 10/2/1 11/2/1
f 16/2/1 14/2/1 13/2/1
f 17/2/1 14/2/1 16/2/1
f 19/2/1 16/2/1 15/2/1
f 20/2/1 16/2/1 19/2/1
f 24/3/1 22/3/1 21/3/1
f 25/3/1 22/3/1 24/3/1
f 27/3/1 24/3/1 23/3/1
f 28/3/1 24/3/1 27/3/1
f 29/3/1 26/3/1 25/3/1
f 30/3/1 26/3/1 29/3/1
f 33/3/1 29/3/1 28/3/1
f 34/3/1 29/3/1 33/3/1
f 35/2/1 32/2/1 31/2/1
f 36/2/1 32/2/1 35/2/1
f 37/2/1 18/2/1 17/2/1
f 38/2/1 18/2/1 37/2/1
f 39/2/1 37/2/1 36/2/1
f 40/2/1 37/2/1 39/2/1
f 44/4/1 42/4/1 41/4/1
f 45/4/1 42/4/1 44/4/1
f 48/4/1 44/4/1 43/4/1
f 49/1/1 45/1/1 44/1/1
f 49/4/1 44/4/1 48/4/1
f 50/4/1 46/4/1 45/4/1
f 50/1/1 45/1/1 49/1/1
f 51/4/1 46/4/1 50/4/1
f 54/4/1 48/4/1 47/4/1
f 55/1/1 49/1/1 48/1/1
f 55/4/1 48/4/1 54/4/1
f 56/1/1 49/1/1 55/1/1
f 57/1/1 51/1/1 50/1/1
f 58/4/1 52/4/1 51/4/1
f 58/1/1 51/1/1 57/1/1
f 59/4/1 52/4/1 58/4/1
f 61/1/1 55/1/1 54/1/1
f 65/1/1 62/1/1 61/1/1
f 66/1/1 62/1/1 65/1/1
f 67/1/1 64/1/1 63/1/1
f 68/1/1 64/1/1 67/1/1
f 69/1/1 65/1/1 61/1/1
f 73/1/1 61/1/1 54/1/1
f 73/1/1 69/1/1 61/1/1
f 73/1/1 70/1/1 69/1/1
f 74/1/1 70/1/1 73/1/1
f 75/1/1 72/1/1 71/1/1
f 76/1/1 72/1/1 75/1/1
f 77/4/1 54/4/1 53/4/1
f 78/1/1 73/1/1 54/1/1
f 78/4/1 54/4/1 77/4/1
f 79/1/1 73/1/1 78/1/1
f 82/1/1 59/1/1 58/1/1
f 83/4/1 60/4/1 59/4/1
f 83/1/1 59/1/1 82/1/1
f 84/4/1 60/4/1 83/4/1
f 85/4/1 79/4/1 78/4/1
f 86/1/1 80/1/1 79/1/1
f 86/4/1 79/4/1 85/4/1
f 87/1/1 80/1/1 86/1/1
f 88/1/1 82/1/1 81/1/1
f 89/4/1 83/4/1 82/4/1
f 89/1/1 82/1/1 88/1/1
f 90/4/1 83/4/1 89/4/1
f 91/4/1 87/4/1 86/4/1
f 92/1/1 88/1/1 87/1/1
f 92/4/1 87/4/1 91/4/1
f 93/4/1 89/4/1 88/4/1
f 93/1/1 88/1/1 92/1/1
f 94/4/1 89/4/1 93/4/1
f 95/4/1 93/4/1 92/4/1
f 96/4/1 93/4/1 95/4/1
f 97/4/2 98/4/2 100/4/2
f 100/4/2 98/4/2 101/4/2
f 99/4/2 100/4/2 104/4/2
f 100/1/2 101/1/2 105/1/2
f 104/4/2 100/4/2 105/4/2
f 105/1/2 101/1/2 106/1/2
f 106/1/2 101/1/2 107/1/2
f 101/4/2 102/4/2 108/4/2
f 107/1/2 101/1/2 108/1/2
f 108/4/2 102/4/2 109/4/2
f 103/4/2 104/4/2 112/4/2
f 104/1/2 105/1/2 113/1/2
f 105/1/2 106/1/2 113/1/2
f 112/4/2 104/4/2 113/4/2
f 113/1/2 106/1/2 114/1/2
f 114/1/2 106/1/2 115/1/2
f 108/1/2 109/1/2 116/1/2
f 107/1/2 108/1/2 116/1/2
f 116/1/2 109/1/2 117/1/2
f 109/4/2 110/4/2 118/4/2
f 117/1/2 109/1/2 118/1/2
f 118/4/2 110/4/2 119/4/2
f 113/1/2 114/1/2 121/1/2
f 112/1/2 113/1/2 121/1/2
f 121/1/2 114/1/2 122/1/2
f 118/1/2 119/1/2 123/1/2
f 117/1/2 118/1/2 123/1/2
f 123/1/2 119/1/2 124/1/2
f 112/1/2 121/1/2 125/1/2
f 124/1/2 119/1/2 128/1/2
f 111/4/2 112/4/2 129/4/2
f 125/1/2 126/1/2 130/1/2
f 129/4/2 112/4/2 130/4/2
f 112/1/2 125/1/2 130/1/2
f 130/1/2 126/1/2 131/1/2
f 131/1/2 126/1/2 132/1/2
f 127/1/2 128/1/2 135/1/2
f 128/1/2 119/1/2 136/1/2
f 135/1/2 128/1/2 136/1/2
f 119/4/2 120/4/2 137/4/2
f 136/1/2 119/1/2 137/1/2
f 137/4/2 120/4/2 138/4/2
f 130/4/2 131/4/2 139/4/2
f 132/1/2 133/1/2 140/1/2
f 139/4/2 131/4/2 140/4/2
f 131/1/2 132/1/2 140/1/2
f 140/1/2 133/1/2 141/1/2
f 141/1/2 133/1/2 142/1/2
f 135/1/2 136/1/2 143/1/2
f 134/1/2 135/1/2 143/1/2
f 143/1/2 136/1/2 144/1/2
f 136/4/2 137/4/2 145/4/2
f 144/1/2 136/1/2 145/1/2
f 145/4/2 137/4/2 146/4/2
f 140/4/2 141/4/2 147/4/2
f 141/1/2 142/1/2 148/1/2
f 147/4/2 141/4/2 148/4/2
f 143/1/2 144/1/2 148/1/2
f 142/1/2 143/1/2 148/1/2
f 144/4/2 145/4/2 149/4/2
f 148/1/2 144/1/2 149/1/2
f 149/4/2 145/4/2 150/4/2
f 148/4/2 149/4/2 151/4/2
f 151/4/2 149/4/2 152/4/2
f 153/1/2 154/1/2 156/1/2
f 156/1/2 154/1/2 157/1/2
f 155/1/2 156/1/2 160/1/2
f 160/1/2 156/1/2 161/1/2
f 157/1/2 158/1/2 162/1/2
f 162/1/2 158/1/2 163/1/2
f 165/1/2 166/1/2 167/1/2
f 167/1/2 166/1/2 168/1/2
f 159/1/2 160/1/2 169/1/2
f 169/1/2 160/1/2 170/1/2
f 163/1/2 164/1/2 173/1/2
f 173/1/2 164/1/2 174/1/2
f 170/1/2 171/1/2 175/1/2
f 175/1/2 171/1/2 176/1/2
f 172/1/2 173/1/2 177/1/2
f 177/1/2 173/1/2 178/1/2
f 176/1/2 177/1/2 179/1/2
f 179/1/2 177/1/2 180/1/2
f 181/1/2 182/1/2 184/1/2
f 184/1/2 182/1/2 185/1/2
f 183/1/2 184/1/2 187/1/2
f 185/1/2 186/1/2 187/1/2
f 184/1/2 185/1/2 187/1/2
f 187/1/2 186/1/2 188/1/2
f 183/1/2 187/1/2 189/1/2
f 188/1/2 186/1/2 190/1/2
f 183/1/2 189/1/2 191/1/2
f 189/1/2 190/1/2 191/1/2
f 191/1/2 190/1/2 192/1/2
f 190/1/2 186/1/2 193/1/2
f 192/1/2 190/1/2 193/1/2
f 193/1/2 186/1/2 194/1/2
f 192/1/2 193/1/2 195/1/2
f 195/1/2 193/1/2 196/1/2
f 199/4/3 198/4/3 197/4/3
f 200/4/3 198/4/3 199/4/3
f 205/4/3 202/4/3 201/4/3
f 206/4/3 202/4/3 205/4/3
f 207/4/3 204/4/3 203/4/3
f 208/4/3 204/4/3 207/4/3
f 215/2/3 210/2/3 209/2/3
f 216/2/3 210/2/3 215/2/3
f 217/2/3 212/2/3 211/2/3
f 218/2/3 212/2/3 217/2/3
f 221/4/3 214/4/3 213/4/3
f 222/4/3 214/4/3 221/4/3
f 225/4/3 220/4/3 219/4/3
f 226/4/3 220/4/3 225/4/3
f 227/1/3 224/1/3 223/1/3
f 228/1/3 224/1/3 227/1/3
f 234/2/3 230/2/3 229/2/3
f 235/2/3 230/2/3 234/2/3
f 236/2/3 232/2/3 231/2/3
f 237/2/3 232/2/3 236/2/3
f 241/2/3 234/2/3 233/2/3
f 242/2/3 234/2/3 241/2/3
f 243/2/3 238/2/3 237/2/3
f 244/2/3 238/2/3 243/2/3
f 247/4/3 240/4/3 239/4/3
f 248/4/3 240/4/3 247/4/3
f 253/4/3 246/4/3 245/4/3
f 254/4/3 246/4/3 253/4/3
f 255/1/3 250/1/3 249/1/3
f 256/1/3 250/1/3 255/1/3
f 257/1/3 252/1/3 251/1/3
f 258/1/3 252/1/3 257/1/3
f 259/1/3 257/1/3 256/1/3
f 260/1/3 257/1/3 259/1/3
f 263/3/3 262/3/3 261/3/3
f 264/3/3 262/3/3 263/3/3
f 269/1/3 266/1/3 265/1/3
f 270/1/3 266/1/3 269/1/3
f 273/1/3 268/1/3 267/1/3
f 274/1/3 268/1/3 273/1/3
f 275/1/3 271/1/3 270/1/3
f 276/1/3 271/1/3 275/1/3
f 277/1/3 273/1/3 272/1/3
f 278/1/3 273/1/3 277/1/3
f 282/3/3 280/3/3 279/3/3
f 283/3/3 280/3/3 282/3/3
f 285/3/3 282/3/3 281/3/3
f 286/3/3 282/3/3 285/3/3
f 287/3/3 284/3/3 283/3/3
f 288/3/3 284/3/3 287/3/3
f 291/1/3 290/1/3 289/1/3
f 292/1/3 290/1/3 291/1/3
f 295/2/3 294/2/3 293/2/3
f 296/2/3 294/2/3 295/2/3
f 297/2/3 295/2/3 293/2/3
f 298/2/3 295/2/3 297/2/3
f 299/2/3 294/2/3 296/2/3
f 300/2/3 294/2/3 299/2/3
f 301/1/4 302/1/4 303/1/4
f 303/1/4 302/1/4 304/1/4
f 305/3/4 306/3/4 308/3/4
f 308/3/4 306/3/4 309/3/4
f 307/3/4 308/3/4 311/3/4
f 311/3/4 308/3/4 312/3/4
f 309/3/4 310/3/4 313/3/4
f 313/3/4 310/3/4 314/3/4
f 315/1/4 316/1/4 319/1/4
f 319/1/4 316/1/4 320/1/4
f 317/1/4 318/1/4 323/1/4
f 323/1/4 318/1/4 324/1/4
f 320/1/4 321/1/4 325/1/4
f 325/1/4 321/1/4 326/1/4
f 322/1/4 323/1/4 327/1/4
f 327/1/4 323/1/4 328/1/4
f 329/2/4 330/2/4 332/2/4
f 332/2/4 330/2/4 333/2/4
f 331/2/4 332/2/4 337/2/4
f 337/2/4 332/2/4 338/2/4
f 333/2/4 334/2/4 339/2/4
f 339/2/4 334/2/4 340/2/4
f 335/4/4 336/4/4 343/4/4
f 343/4/4 336/4/4 344/4/4
f 341/4/4 342/4/4 349/4/4
f 349/4/4 342/4/4 350/4/4
f 345/1/4 346/1/4 351/1/4
f 351/1/4 346/1/4 352/1/4
f 347/1/4 348/1/4 353/1/4
f 353/1/4 348/1/4 354/1/4
f 352/1/4 353/1/4 355/1/4
f 355/1/4 353/1/4 356/1/4
f 357/2/4 358/2/4 361/2/4
f 361/2/4 358/2/4 362/2/4
f 359/4/4 360/4/4 365/4/4
f 365/4/4 360/4/4 366/4/4
f 363/4/4 364/4/4 369/4/4
f 369/4/4 364/4/4 370/4/4
f 367/1/4 368/1/4 371/1/4
f 371/1/4 368/1/4 372/1/4
f 373/4/4 374/4/4 377/4/4
f 377/4/4 374/4/4 378/4/4
f 375/4/4 376/4/4 379/4/4
f 379/4/4 376/4/4 380/4/4
f 381/4/4 382/4/4 383/4/4
f 383/4/4 382/4/4 384/4/4
f 387/4/5 386/4/5 385/4/5
f 388/4/5 386/4/5 387/4/5
f 391/4/5 390/4/5 389/4/5
f 392/4/5 390/4/5 391/4/5
f 395/4/5 394/4/5 393/4/5
f 396/4/5 394/4/5 395/4/5
f 399/4/5 398/4/5 397/4/5
f 400/4/5 398/4/5 399/4/5
f 405/1/5 404/1/5 403/1/5
f 406/1/5 404/1/5 405/1/5
f 407/2/5 402/2/5 401/2/5
f 408/2/5 402/2/5 407/2/5
f 411/4/5 410/4/5 409/4/5
f 412/4/5 410/4/5 411/4/5
f 415/4/5 414/4/5 413/4/5
f 416/4/5 414/4/5 415/4/5
f 420/2/5 418/2/5 417/2/5
f 421/2/5 418/2/5 420/2/5
f 424/1/5 423/1/5 422/1/5
f 425/1/5 423/1/5 424/1/5
f 428/1/5 426/1/5 425/1/5
f 429/1/5 426/1/5 428/1/5
f 430/2/5 420/2/5 419/2/5
f 431/2/5 420/2/5 430/2/5
f 433/1/5 428/1/5 427/1/5
f 434/1/5 428/1/5 433/1/5
f 435/2/5 432/2/5 431/2/5
f 436/2/5 432/2/5 435/2/5
f 439/4/5 438/4/5 437/4/5
f 440/4/5 438/4/5 439/4/5
f 443/1/5 442/1/5 441/1/5
f 444/1/5 442/1/5 443/1/5
f 446/1/5 445/1/5 444/1/5
f 447/1/5 445/1/5 446/1/5
f 451/1/5 449/1/5 448/1/5
f 452/1/5 449/1/5 451/1/5
f 453/1/5 451/1/5 450/1/5
f 454/1/5 451/1/5 453/1/5
f 458/3/5 456/3/5 455/3/5
f 459/3/5 456/3/5 458/3/5
f 460/3/5 458/3/5 457/3/5
f 461/3/5 458/3/5 460/3/5
f 463/3/5 462/3/5 461/3/5
f 464/3/5 462/3/5 463/3/5
f 467/1/5 466/1/5 465/1/5
f 468/1/5 466/1/5 467/1/5
f 472/2/5 470/2/5 469/2/5
f 473/2/5 470/2/5 472/2/5
f 473/2/5 472/2/5 471/2/5
f 474/2/5 470/2/5 473/2/5
f 475/2/5 473/2/5 471/2/5
f 477/2/5 475/2/5 471/2/5
f 477/2/5 476/2/5 475/2/5
f 478/2/5 476/2/5 477/2/5
f 479/2/6 480/2/6 482/2/6
f 482/2/6 480/2/6 483/2/6
f 481/2/6 482/2/6 483/2/6
f 483/2/6 480/2/6 484/2/6
f 481/2/6 483/2/6 485/2/6
f 481/2/6 485/2/6 487/2/6
f 485/2/6 486/2/6 487/2/6
f 487/2/6 486/2/6 488/2/6
f 489/1/6 490/1/6 491/1/6
f 491/1/6 490/1/6 492/1/6
f 493/3/6 494/3/6 496/3/6
f 496/3/6 494/3/6 497/3/6
f 495/3/6 496/3/6 498/3/6
f 498/3/6 496/3/6 499/3/6
f 499/3/6 500/3/6 501/3/6
f 501/3/6 500/3/6 502/3/6
f 503/1/6 504/1/6 505/1/6
f 505/1/6 504/1/6 506/1/6
f 506/1/6 507/1/6 508/1/6
f 508/1/6 507/1/6 509/1/6
f 510/1/6 511/1/6 513/1/6
f 513/1/6 511/1/6 514/1/6
f 512/1/6 513/1/6 515/1/6
f 515/1/6 513/1/6 516/1/6
f 517/4/6 518/4/6 519/4/6
f 519/4/6 518/4/6 520/4/6
f 521/2/6 522/2/6 524/2/6
f 524/2/6 522/2/6 525/2/6
f 526/1/6 527/1/6 528/1/6
f 528/1/6 527/1/6 529/1/6
f 529/1/6 530/1/6 532/1/6
f 532/1/6 530/1/6 533/1/6
f 523/2/6 524/2/6 534/2/6
f 534/2/6 524/2/6 535/2/6
f 531/1/6 532/1/6 537/1/6
f 537/1/6 532/1/6 538/1/6
f 535/2/6 536/2/6 539/2/6
f 539/2/6 536/2/6 540/2/6
f 541/4/6 542/4/6 543/4/6
f 543/4/6 542/4/6 544/4/6
f 545/4/6 546/4/6 547/4/6
f 547/4/6 546/4/6 548/4/6
f 551/1/6 552/1/6 553/1/6
f 553/1/6 552/1/6 554/1/6
f 549/2/6 550/2/6 555/2/6
f 555/2/6 550/2/6 556/2/6
f 557/4/6 558/4/6 559/4/6
f 559/4/6 558/4/6 560/4/6
f 561/4/6 562/4/6 563/4/6
f 563/4/6 562/4/6 564/4/6
f 565/4/6 566/4/6 567/4/6
f 567/4/6 566/4/6 568/4/6
f 569/4/6 570/4/6 571/4/6
f 571/4/6 570/4/6 572/4/6
