# Blender v2.82 (sub 7) OBJ File: 'pigeon+.blend'
# www.blender.org
mtllib pigeon.mtl
o Pigeon
v -0.341884 4.232187 1.145525
v 0.341884 4.232187 1.145525
v 0.341884 4.232186 2.403430
v -0.341884 4.232186 2.403430
v 0.341884 4.901066 2.403430
v -0.341884 4.901066 2.403430
v 0.341884 4.896505 1.145525
v -0.341884 4.896505 1.145525
v -1.000000 1.672395 -2.143097
v -1.000000 2.652258 -2.143096
v -1.000000 2.652258 -2.458120
v -1.000000 1.672395 -2.458120
v 1.000000 2.652258 -2.458120
v 1.000000 1.672395 -2.458120
v 1.000000 2.652258 -2.143096
v 1.000000 1.672395 -2.143097
v 1.332493 1.956663 -0.513895
v 0.308149 1.956663 -0.513895
v 0.308149 1.956663 0.513895
v 1.332493 1.956663 0.513895
v -1.332493 1.956663 -0.513895
v -1.332493 1.956663 0.513895
v -0.308149 1.956663 0.513895
v -0.308149 1.956663 -0.513895
v 0.997263 1.955795 -1.179552
v 0.997263 2.953418 -1.179551
v 0.997263 2.953418 -1.490368
v 0.997263 1.955795 -1.490368
v 1.635131 2.953418 -1.490368
v 1.635131 1.955795 -1.490368
v 1.635131 2.953418 -1.179551
v 1.635131 2.953418 -0.837206
v 0.997263 2.953418 -0.837206
v 0.997263 2.953418 -0.179552
v 1.635131 2.953418 -0.179552
v 1.635131 1.955795 -1.179552
v 0.997263 1.955795 -0.837206
v 1.635131 1.955795 -0.837206
v 1.635131 1.955795 -0.179552
v 0.997263 1.955795 -0.179552
v -0.997263 1.955795 -1.179552
v -0.997263 1.955795 -1.490368
v -0.997263 2.953418 -1.490368
v -0.997263 2.953418 -1.179551
v -1.635131 1.955795 -1.490368
v -1.635131 2.953418 -1.490368
v -1.635131 2.953418 -1.179551
v -1.635131 2.953418 -0.837206
v -1.635131 2.953418 -0.179552
v -0.997263 2.953418 -0.179552
v -0.997263 2.953418 -0.837206
v -1.635131 1.955795 -1.179552
v -0.997263 1.955795 -0.837206
v -0.997263 1.955795 -0.179552
v -1.635131 1.955795 -0.179552
v -1.635131 1.955795 -0.837206
v 1.000000 5.647449 -1.145523
v -1.000000 5.647449 -1.145523
v -1.000000 5.647449 1.145525
v 1.000000 5.647449 1.145525
v -1.000000 3.647449 -1.145523
v 1.000000 3.647449 -1.145523
v -1.000000 2.652258 -1.145524
v 1.000000 2.652258 -1.145524
v 1.000000 2.652258 -1.473673
v -1.000000 2.652258 -1.473673
v -0.341884 5.232823 1.145525
v -1.000000 3.647449 1.145525
v 0.341884 5.232823 1.145525
v 1.000000 3.647449 1.145525
v 1.000000 5.319655 -0.175972
v 1.000000 4.308813 -0.175972
v 1.000000 4.308813 0.830449
v 1.000000 5.319655 0.830449
v -1.000000 4.308813 0.830449
v -1.000000 4.308813 -0.175972
v -1.000000 5.319655 0.830449
v -1.000000 5.319655 -0.175972
v -1.000000 1.672395 -1.473673
v 1.000000 1.672395 -1.473673
v 1.000000 1.322578 -1.473673
v -1.000000 1.322578 -1.473673
v -1.000000 1.322578 -1.145524
v 1.000000 1.322578 -1.145524
v 1.635131 2.953418 0.509633
v 1.635131 1.955795 0.509633
v 0.997263 2.953418 0.509633
v 0.997263 1.955795 0.509633
v -1.635131 1.955795 0.509633
v -1.635131 2.953418 0.509633
v -0.997263 1.955795 0.509633
v -0.997263 2.953418 0.509633
v -0.341884 5.232823 1.446328
v 0.341884 5.232823 1.446328
v -1.000000 1.322578 1.145524
v 1.000000 1.322578 1.145524
v 0.341884 4.896505 1.446328
v -0.341884 4.896505 1.446328
v 0.308149 0.975560 0.513895
v 0.308149 0.975560 -0.513895
v 1.332493 0.975560 -0.513895
v 1.332493 0.975560 0.513895
v 0.636690 0.975560 -0.168135
v 0.636690 0.975560 0.168135
v 1.003951 0.975560 -0.168135
v 1.003951 0.975560 0.168135
v -0.308149 0.975560 0.513895
v -0.308149 0.975560 -0.513895
v -1.332493 0.975560 -0.513895
v -1.332493 0.975560 0.513895
v -0.636690 0.975560 -0.168135
v -0.636690 0.975560 0.168135
v -1.003951 0.975560 -0.168135
v -1.003951 0.975560 0.168135
v 1.003951 0.363555 0.168135
v 1.003951 0.363555 -0.168135
v 0.636690 -0.005355 0.810752
v 0.636690 0.363555 0.810752
v 0.335614 0.363555 0.810752
v 0.335614 -0.005355 0.810752
v 0.636690 0.363555 -0.168135
v 0.636690 0.363555 0.168135
v 0.636690 -0.005355 -0.168135
v 1.003951 -0.005355 -0.168135
v 1.003951 -0.005355 0.168135
v 0.636690 -0.005355 0.168135
v 1.003951 -0.005355 0.810752
v 1.003951 -0.005355 1.464051
v 0.636690 -0.005355 1.464051
v 0.636690 -0.005355 -0.489749
v 1.003951 -0.005355 -0.489749
v 1.303494 -0.005355 0.168135
v 1.303494 -0.005355 0.810752
v 0.636690 0.363555 -0.489749
v 1.003951 0.363555 -0.489749
v 1.003951 0.363555 1.464051
v 0.636690 0.363555 1.464051
v 1.003951 0.363555 0.810752
v 1.303494 0.363555 0.810752
v 1.303494 0.363555 -0.168135
v 1.303494 0.363555 0.168135
v 1.303494 -0.005355 -0.168135
v -1.003951 0.363555 -0.168135
v -1.003951 0.363555 0.168135
v -0.636690 -0.005355 0.168135
v -0.636690 -0.005355 -0.168135
v -0.335614 -0.005355 -0.168135
v -0.335614 -0.005355 0.168135
v -0.636690 0.363555 0.168135
v -0.636690 0.363555 -0.168135
v -1.003951 -0.005355 0.168135
v -1.003951 -0.005355 -0.168135
v -0.636690 -0.005355 0.810752
v -0.636690 -0.005355 1.464051
v -1.003951 -0.005355 1.464051
v -1.003951 -0.005355 0.810752
v -1.003951 -0.005355 -0.489749
v -0.636690 -0.005355 -0.489749
v -1.303494 -0.005355 0.810752
v -1.303494 -0.005355 0.168135
v -0.636690 0.363555 -0.489749
v -1.003951 0.363555 -0.489749
v -1.003951 0.363555 1.464051
v -0.636690 0.363555 1.464051
v -1.003951 0.363555 0.810752
v -0.636690 0.363555 0.810752
v -1.303494 0.363555 0.810752
v -1.303494 0.363555 -0.168135
v -1.303494 -0.005355 -0.168135
v -1.303494 0.363555 0.168135
v -0.335614 0.363555 -0.168135
v 0.335614 0.363555 -0.168135
v 0.335614 0.363555 0.168135
v 0.335614 -0.005355 -0.168135
v 0.335614 -0.005355 0.168135
v -0.335614 0.363555 0.168135
v -0.335614 0.363555 0.810752
v -0.335614 -0.005355 0.810752
v 1.306273 4.308813 0.830449
v 1.306273 5.319655 0.830449
v 1.306273 4.308813 -0.175972
v 1.306273 5.319655 -0.175972
v -1.306273 4.308813 0.830449
v -1.306273 4.308813 -0.175972
v -1.306273 5.319655 -0.175972
v -1.306273 5.319655 0.830449
v 1.306273 4.646108 0.162368
v 1.306273 4.982360 0.162368
v 1.190099 4.982360 0.162368
v 1.190099 4.646108 0.162368
v 1.306273 4.646108 0.492110
v 1.306273 4.982360 0.492110
v -1.306273 4.982360 0.162368
v -1.306273 4.646108 0.162368
v -1.190099 4.646108 0.162368
v -1.190099 4.982360 0.162368
v -1.306273 4.646108 0.492110
v -1.306273 4.982360 0.492110
v 1.190099 4.646108 0.492110
v 1.190099 4.982360 0.492110
v -1.190099 4.646108 0.492110
v -1.190099 4.982360 0.492110
vt 0.452499 0.922501
vt 0.452499 0.827499
vt 0.452499 0.827499
vt 0.452499 0.922501
vt 0.500000 0.827499
vt 0.500000 0.922501
vt 0.500000 0.827499
vt 0.500000 0.922501
vt 0.375000 0.250000
vt 0.375000 0.250000
vt 0.375000 0.250000
vt 0.375000 0.250000
vt 0.375000 0.500000
vt 0.375000 0.500000
vt 0.375000 0.500000
vt 0.375000 0.500000
vt 0.625000 0.500000
vt 0.875000 0.500000
vt 0.875000 0.750000
vt 0.625000 0.750000
vt 0.625000 0.500000
vt 0.625000 0.750000
vt 0.875000 0.750000
vt 0.875000 0.500000
vt 0.375000 0.187500
vt 0.625000 0.187500
vt 0.625000 0.250000
vt 0.375000 0.250000
vt 0.625000 0.500000
vt 0.375000 0.500000
vt 0.875000 0.500000
vt 0.875000 0.562500
vt 0.625000 0.562500
vt 0.625000 0.625000
vt 0.875000 0.625000
vt 0.875000 0.687500
vt 0.625000 0.687500
vt 0.125000 0.500000
vt 0.375000 0.562500
vt 0.125000 0.562500
vt 0.125000 0.625000
vt 0.375000 0.625000
vt 0.375000 0.687500
vt 0.125000 0.687500
vt 0.375000 0.062500
vt 0.625000 0.062500
vt 0.625000 0.125000
vt 0.375000 0.125000
vt 0.375000 0.187500
vt 0.375000 0.250000
vt 0.625000 0.250000
vt 0.625000 0.187500
vt 0.375000 0.500000
vt 0.625000 0.500000
vt 0.625000 0.562500
vt 0.875000 0.562500
vt 0.875000 0.500000
vt 0.625000 0.625000
vt 0.625000 0.687500
vt 0.875000 0.687500
vt 0.875000 0.625000
vt 0.125000 0.500000
vt 0.125000 0.562500
vt 0.375000 0.562500
vt 0.125000 0.625000
vt 0.125000 0.687500
vt 0.375000 0.687500
vt 0.375000 0.625000
vt 0.375000 0.062500
vt 0.375000 0.125000
vt 0.625000 0.125000
vt 0.625000 0.062500
vt 0.625000 0.500000
vt 0.875000 0.500000
vt 0.875000 0.750000
vt 0.625000 0.750000
vt 0.375000 0.250000
vt 0.625000 0.250000
vt 0.375000 0.500000
vt 0.375000 0.250000
vt 0.375000 0.500000
vt 0.375000 0.500000
vt 0.375000 0.250000
vt 0.547501 0.922501
vt 0.625000 1.000000
vt 0.375000 1.000000
vt 0.547501 0.827499
vt 0.375000 0.750000
vt 0.582661 0.542338
vt 0.417339 0.542339
vt 0.417339 0.707662
vt 0.582662 0.707662
vt 0.417339 0.042339
vt 0.417339 0.207662
vt 0.375000 0.000000
vt 0.582661 0.042338
vt 0.625000 0.000000
vt 0.582662 0.207661
vt 0.375000 0.250000
vt 0.375000 0.500000
vt 0.375000 0.500000
vt 0.375000 0.250000
vt 0.375000 0.250000
vt 0.375000 0.500000
vt 0.125000 0.500000
vt 0.125000 0.500000
vt 0.625000 0.750000
vt 0.375000 0.750000
vt 0.625000 1.000000
vt 0.375000 1.000000
vt 0.125000 0.750000
vt 0.875000 0.750000
vt 0.375000 0.000000
vt 0.625000 0.000000
vt 0.375000 0.750000
vt 0.625000 0.750000
vt 0.375000 1.000000
vt 0.625000 1.000000
vt 0.125000 0.750000
vt 0.875000 0.750000
vt 0.375000 0.000000
vt 0.625000 0.000000
vt 0.547501 0.922501
vt 0.547501 0.827499
vt 0.375000 0.000000
vt 0.375000 0.750000
vt 0.125000 0.750000
vt 0.375000 1.000000
vt 0.500000 0.827499
vt 0.500000 0.922501
vt 0.375000 0.000000
vt 0.625000 0.000000
vt 0.625000 0.250000
vt 0.375000 0.250000
vt 0.375000 0.500000
vt 0.375000 0.750000
vt 0.625000 1.000000
vt 0.375000 1.000000
vt 0.194692 0.569458
vt 0.194692 0.680542
vt 0.125000 0.750000
vt 0.125000 0.500000
vt 0.305308 0.569458
vt 0.305308 0.680542
vt 0.375000 0.000000
vt 0.375000 0.250000
vt 0.625000 0.250000
vt 0.625000 0.000000
vt 0.375000 0.500000
vt 0.375000 0.750000
vt 0.375000 1.000000
vt 0.625000 1.000000
vt 0.194692 0.569458
vt 0.125000 0.500000
vt 0.125000 0.750000
vt 0.194692 0.680542
vt 0.305308 0.569458
vt 0.305308 0.680542
vt 0.305308 0.680542
vt 0.305308 0.569458
vt 0.194692 0.680542
vt 0.194692 0.680542
vt 0.194692 0.680542
vt 0.194692 0.680542
vt 0.194692 0.569458
vt 0.194692 0.680542
vt 0.194692 0.569458
vt 0.305308 0.569458
vt 0.305308 0.680542
vt 0.194692 0.680542
vt 0.305308 0.680542
vt 0.305308 0.680542
vt 0.194692 0.680542
vt 0.194692 0.569458
vt 0.305308 0.569458
vt 0.305308 0.680542
vt 0.305308 0.680542
vt 0.194692 0.569458
vt 0.305308 0.569458
vt 0.305308 0.680542
vt 0.194692 0.680542
vt 0.305308 0.680542
vt 0.305308 0.680542
vt 0.305308 0.569458
vt 0.305308 0.680542
vt 0.305308 0.569458
vt 0.305308 0.569458
vt 0.305308 0.680542
vt 0.194692 0.680542
vt 0.194692 0.569458
vt 0.194692 0.569458
vt 0.194692 0.680542
vt 0.194692 0.680542
vt 0.194692 0.569458
vt 0.305308 0.680542
vt 0.305308 0.569458
vt 0.194692 0.680542
vt 0.194692 0.680542
vt 0.305308 0.680542
vt 0.305308 0.680542
vt 0.305308 0.569458
vt 0.194692 0.569458
vt 0.305308 0.680542
vt 0.305308 0.680542
vt 0.194692 0.569458
vt 0.305308 0.569458
vt 0.305308 0.680542
vt 0.194692 0.680542
vt 0.305308 0.680542
vt 0.194692 0.680542
vt 0.305308 0.680542
vt 0.305308 0.569458
vt 0.305308 0.569458
vt 0.305308 0.680542
vt 0.194692 0.569458
vt 0.194692 0.569458
vt 0.194692 0.680542
vt 0.194692 0.569458
vt 0.194692 0.680542
vt 0.194692 0.680542
vt 0.194692 0.680542
vt 0.194692 0.680542
vt 0.417339 0.707662
vt 0.582662 0.707662
vt 0.417339 0.542339
vt 0.582661 0.542338
vt 0.417339 0.042339
vt 0.417339 0.207662
vt 0.582662 0.207661
vt 0.582661 0.042338
vt 0.465644 0.597917
vt 0.534356 0.597917
vt 0.534356 0.597917
vt 0.465644 0.597917
vt 0.465644 0.652083
vt 0.534356 0.652083
vt 0.534356 0.152083
vt 0.465644 0.152083
vt 0.465644 0.152083
vt 0.534356 0.152083
vt 0.465644 0.097917
vt 0.534356 0.097917
vt 0.465644 0.652083
vt 0.534356 0.652083
vt 0.465644 0.097917
vt 0.534356 0.097917
vn 0.0000 -1.0000 -0.0000
vn 0.0000 0.0000 1.0000
vn 1.0000 0.0000 0.0000
vn 0.0000 1.0000 -0.0036
vn -1.0000 0.0000 0.0000
vn 0.0000 0.0000 -1.0000
vn 0.0000 1.0000 0.0000
usemtl grey_dark
s off
f 1/1/1 2/2/1 3/3/1 4/4/1
f 3/3/2 5/5/2 6/6/2 4/4/2
f 2/2/3 7/7/3 5/5/3 3/3/3
f 7/7/4 8/8/4 6/6/4 5/5/4
f 8/8/5 1/1/5 4/4/5 6/6/5
f 9/9/5 10/10/5 11/11/5 12/12/5
f 11/11/6 13/13/6 14/14/6 12/12/6
f 15/15/3 16/16/3 14/14/3 13/13/3
f 16/16/1 9/9/1 12/12/1 14/14/1
f 10/10/7 15/15/7 13/13/7 11/11/7
f 17/17/7 18/18/7 19/19/7 20/20/7
f 21/21/7 22/22/7 23/23/7 24/24/7
f 25/25/5 26/26/5 27/27/5 28/28/5
f 28/28/6 27/27/6 29/29/6 30/30/6
f 29/29/7 27/31/7 26/32/7 31/33/7
f 32/34/7 33/35/7 34/36/7 35/37/7
f 28/38/1 30/30/1 36/39/1 25/40/1
f 37/41/1 38/42/1 39/43/1 40/44/1
f 30/30/3 29/29/3 31/33/3 36/39/3
f 38/42/3 32/34/3 35/37/3 39/43/3
f 40/45/5 34/46/5 33/47/5 37/48/5
f 41/49/3 42/50/3 43/51/3 44/52/3
f 42/50/6 45/53/6 46/54/6 43/51/6
f 46/54/7 47/55/7 44/56/7 43/57/7
f 48/58/7 49/59/7 50/60/7 51/61/7
f 42/62/1 41/63/1 52/64/1 45/53/1
f 53/65/1 54/66/1 55/67/1 56/68/1
f 45/53/5 52/64/5 47/55/5 46/54/5
f 56/68/5 55/67/5 49/59/5 48/58/5
f 54/69/3 53/70/3 51/71/3 50/72/3
usemtl grey
f 57/73/7 58/74/7 59/75/7 60/76/7
f 61/77/6 58/78/6 57/73/6 62/79/6
f 63/80/7 64/81/7 65/82/7 66/83/7
f 1/1/2 8/8/2 67/84/2 59/85/2 68/86/2
f 69/87/2 7/7/2 2/2/2 70/88/2 60/76/2
f 67/84/2 69/87/2 60/76/2 59/85/2
f 2/2/2 1/1/2 68/86/2 70/88/2
f 71/89/3 72/90/3 62/79/3 57/73/3
f 73/91/3 74/92/3 60/76/3 70/88/3
f 74/92/3 71/89/3 57/73/3 60/76/3
f 72/90/3 73/91/3 70/88/3 62/79/3
f 75/93/5 76/94/5 61/77/5 68/95/5
f 77/96/5 75/93/5 68/95/5 59/97/5
f 76/94/5 78/98/5 58/78/5 61/77/5
f 78/98/5 77/96/5 59/97/5 58/78/5
f 79/99/6 80/100/6 81/101/6 82/102/6
f 83/103/5 63/80/5 66/83/5 79/99/5 82/102/5
f 64/81/3 84/104/3 81/101/3 80/100/3 65/82/3
f 84/104/1 83/105/1 82/106/1 81/101/1
f 80/100/1 79/99/1 9/9/1 16/16/1
f 79/99/5 66/83/5 10/10/5 9/9/5
f 65/82/3 80/100/3 16/16/3 15/15/3
f 66/83/7 65/82/7 15/15/7 10/10/7
f 39/43/3 35/37/3 85/107/3 86/108/3
f 86/108/2 85/107/2 87/109/2 88/110/2
f 40/44/1 39/43/1 86/108/1 88/111/1
f 35/37/7 34/36/7 87/112/7 85/107/7
f 31/33/7 26/32/7 33/35/7 32/34/7
f 25/40/1 36/39/1 38/42/1 37/41/1
f 36/39/3 31/33/3 32/34/3 38/42/3
f 88/113/5 87/114/5 34/46/5 40/45/5
f 37/48/5 33/47/5 26/26/5 25/25/5
f 55/67/5 89/115/5 90/116/5 49/59/5
f 89/115/2 91/117/2 92/118/2 90/116/2
f 54/66/1 91/119/1 89/115/1 55/67/1
f 49/59/7 90/116/7 92/120/7 50/60/7
f 47/55/7 48/58/7 51/61/7 44/56/7
f 41/63/1 53/65/1 56/68/1 52/64/1
f 52/64/5 56/68/5 48/58/5 47/55/5
f 91/121/3 54/69/3 50/72/3 92/122/3
f 53/70/3 41/49/3 44/52/3 51/71/3
usemtl grey_light
f 69/87/7 67/84/7 93/123/7 94/124/7
f 68/95/5 61/77/5 63/80/5 83/103/5 95/125/5
f 83/105/1 84/104/1 96/126/1 95/127/1
f 62/79/3 70/88/3 96/126/3 84/104/3 64/81/3
f 70/88/2 68/86/2 95/128/2 96/126/2
f 97/129/2 94/124/2 93/123/2 98/130/2
f 67/84/5 8/8/5 98/130/5 93/123/5
f 7/7/3 69/87/3 94/124/3 97/129/3
f 8/8/1 7/7/1 97/129/1 98/130/1
f 61/77/6 62/79/6 64/81/6 63/80/6
f 99/131/5 19/132/5 18/133/5 100/134/5
f 100/134/6 18/133/6 17/17/6 101/135/6
f 101/135/3 17/17/3 20/20/3 102/136/3
f 102/136/2 20/20/2 19/137/2 99/138/2
f 103/139/1 104/140/1 99/141/1 100/142/1
f 105/143/1 103/139/1 100/142/1 101/135/1
f 106/144/1 105/143/1 101/135/1 102/136/1
f 104/140/1 106/144/1 102/136/1 99/141/1
f 107/145/3 108/146/3 24/147/3 23/148/3
f 108/146/6 109/149/6 21/21/6 24/147/6
f 109/149/5 110/150/5 22/22/5 21/21/5
f 110/150/2 107/151/2 23/152/2 22/22/2
f 111/153/1 108/154/1 107/155/1 112/156/1
f 113/157/1 109/149/1 108/154/1 111/153/1
f 114/158/1 110/150/1 109/149/1 113/157/1
f 112/156/1 107/155/1 110/150/1 114/158/1
usemtl orange
f 105/143/3 106/144/3 115/159/3 116/160/3
f 117/161/2 118/162/2 119/163/2 120/164/2
f 104/140/5 103/139/5 121/165/5 122/166/5
f 106/144/2 104/140/2 122/166/2 115/159/2
f 103/139/6 105/143/6 116/160/6 121/165/6
f 123/167/1 124/168/1 125/169/1 126/170/1
f 126/170/1 125/169/1 127/171/1 128/172/1 129/173/1 117/161/1
f 124/168/1 123/167/1 130/174/1 131/175/1
f 127/171/1 125/169/1 132/176/1 133/177/1
f 134/178/6 135/179/6 131/175/6 130/174/6
f 121/165/7 116/160/7 135/179/7 134/178/7
f 123/167/5 121/165/5 134/178/5 130/174/5
f 116/160/3 124/168/3 131/175/3 135/179/3
f 136/180/2 137/181/2 129/173/2 128/172/2
f 115/159/7 122/166/7 118/162/7 137/181/7 136/180/7 138/182/7
f 127/171/3 138/182/3 136/180/3 128/172/3
f 118/162/5 117/161/5 129/173/5 137/181/5
f 138/182/2 127/171/2 133/177/2 139/183/2
f 140/184/3 141/185/3 132/176/3 142/186/3
f 132/176/3 141/185/3 139/183/3 133/177/3
f 125/169/1 124/168/1 142/186/1 132/176/1
f 124/168/6 116/160/6 140/184/6 142/186/6
f 116/160/7 115/159/7 141/185/7 140/184/7
f 115/159/7 138/182/7 139/183/7 141/185/7
f 113/157/5 143/187/5 144/188/5 114/158/5
f 145/189/1 146/190/1 147/191/1 148/192/1
f 112/156/3 149/193/3 150/194/3 111/153/3
f 114/158/2 144/188/2 149/193/2 112/156/2
f 111/153/6 150/194/6 143/187/6 113/157/6
f 146/190/1 145/189/1 151/195/1 152/196/1
f 145/189/1 153/197/1 154/198/1 155/199/1 156/200/1 151/195/1
f 152/196/1 157/201/1 158/202/1 146/190/1
f 156/200/1 159/203/1 160/204/1 151/195/1
f 161/205/6 158/202/6 157/201/6 162/206/6
f 150/194/7 161/205/7 162/206/7 143/187/7
f 146/190/3 158/202/3 161/205/3 150/194/3
f 143/187/5 162/206/5 157/201/5 152/196/5
f 163/207/2 155/199/2 154/198/2 164/208/2
f 144/188/7 165/209/7 163/207/7 164/208/7 166/210/7 149/193/7
f 156/200/5 155/199/5 163/207/5 165/209/5
f 166/210/3 164/208/3 154/198/3 153/197/3
f 165/209/2 167/211/2 159/203/2 156/200/2
f 168/212/5 169/213/5 160/204/5 170/214/5
f 160/204/5 159/203/5 167/211/5 170/214/5
f 151/195/1 160/204/1 169/213/1 152/196/1
f 152/196/6 169/213/6 168/212/6 143/187/6
f 143/187/7 168/212/7 170/214/7 144/188/7
f 144/188/7 170/214/7 167/211/7 165/209/7
f 146/190/6 150/194/6 171/215/6 147/191/6
f 122/166/7 121/165/7 172/216/7 173/217/7
f 173/217/5 172/216/5 174/218/5 175/219/5
f 173/217/5 175/219/5 120/164/5 119/163/5
f 126/170/1 117/161/1 120/164/1 175/219/1
f 121/165/6 123/167/6 174/218/6 172/216/6
f 118/162/7 122/166/7 173/217/7 119/163/7
f 123/167/1 126/170/1 175/219/1 174/218/1
f 176/220/3 148/192/3 147/191/3 171/215/3
f 176/220/3 177/221/3 178/222/3 148/192/3
f 149/193/7 166/210/7 177/221/7 176/220/7
f 150/194/7 149/193/7 176/220/7 171/215/7
f 153/197/1 145/189/1 148/192/1 178/222/1
f 166/210/2 153/197/2 178/222/2 177/221/2
usemtl white
f 74/92/2 73/91/2 179/223/2 180/224/2
f 73/91/1 72/90/1 181/225/1 179/223/1
f 72/90/6 71/89/6 182/226/6 181/225/6
f 71/89/7 74/92/7 180/224/7 182/226/7
f 76/94/1 75/93/1 183/227/1 184/228/1
f 78/98/6 76/94/6 184/228/6 185/229/6
f 75/93/2 77/96/2 186/230/2 183/227/2
f 77/96/7 78/98/7 185/229/7 186/230/7
f 187/231/2 188/232/2 189/233/2 190/234/2
f 188/232/3 187/231/3 181/225/3 182/226/3
f 191/235/3 192/236/3 180/224/3 179/223/3
f 192/236/3 188/232/3 182/226/3 180/224/3
f 187/231/3 191/235/3 179/223/3 181/225/3
f 193/237/2 194/238/2 195/239/2 196/240/2
f 197/241/5 194/238/5 184/228/5 183/227/5
f 198/242/5 197/241/5 183/227/5 186/230/5
f 194/238/5 193/237/5 185/229/5 184/228/5
f 193/237/5 198/242/5 186/230/5 185/229/5
f 191/235/7 187/231/7 190/234/7 199/243/7
f 192/236/6 191/235/6 199/243/6 200/244/6
f 188/232/1 192/236/1 200/244/1 189/233/1
f 194/238/7 197/241/7 201/245/7 195/239/7
f 198/242/1 193/237/1 196/240/1 202/246/1
f 197/241/6 198/242/6 202/246/6 201/245/6
usemtl black
f 190/234/3 189/233/3 200/244/3 199/243/3
f 201/245/5 202/246/5 196/240/5 195/239/5
