# MagicaVoxel @ Ephtracy

# group
o 

# material
mtllib TileAreia.mtl
usemtl palette

# normals
vn -1 0 0
vn 1 0 0
vn 0 0 1
vn 0 0 -1
vn 0 -1 0
vn 0 1 0

# texcoords
vt 0.306641 0.5
vt 0.373047 0.5
vt 0.396484 0.5

# verts
v 0 2 0
v 0 2 -4
v 0 3.5 0
v 0 3.5 -4
v 0 3.6 0
v 0 3.6 -4
v 0 3.7 0
v 0 3.7 -4
v 0 3.8 0
v 0 3.8 -4
v 0 3.9 0
v 0 3.9 -4
v 0 4.1 -1.5
v 0 4.1 -1.6
v 0 4.2 -0.9
v 0 4.2 -1
v 0 4.2 -1.5
v 0 4.2 -1.6
v 0 4.3 0
v 0 4.3 -0.9
v 0 4.3 -1
v 0 4.3 -4
v 0 4.9 0
v 0 4.9 -4
v 0 5.2 -2.3
v 0 5.2 -2.4
v 0 5.3 -2.3
v 0 5.3 -2.4
v 0 5.4 -3.9
v 0 5.4 -4
v 0 5.5 -3.9
v 0 5.5 -4
v 0 6 0
v 0 6 -4
v 4 2 0
v 4 2 -4
v 4 3.5 0
v 4 3.5 -4
v 4 3.6 0
v 4 3.6 -4
v 4 3.7 0
v 4 3.7 -4
v 4 3.8 0
v 4 3.8 -4
v 4 3.9 0
v 4 3.9 -4
v 4 4.1 -1.8
v 4 4.1 -1.9
v 4 4.1 -3.4
v 4 4.1 -3.5
v 4 4.2 -1.8
v 4 4.2 -1.9
v 4 4.2 -3.4
v 4 4.2 -3.5
v 4 4.3 -0.7
v 4 4.3 -0.8
v 4 4.4 0
v 4 4.4 -0.7
v 4 4.4 -0.8
v 4 4.4 -4
v 4 5 0
v 4 5 -4
v 4 5.1 -2.2
v 4 5.1 -2.3
v 4 5.2 -0.4
v 4 5.2 -0.5
v 4 5.2 -2.2
v 4 5.2 -2.3
v 4 5.2 -3.3
v 4 5.2 -3.4
v 4 5.3 -0.4
v 4 5.3 -0.5
v 4 5.3 -1.5
v 4 5.3 -1.6
v 4 5.3 -3.3
v 4 5.3 -3.4
v 4 5.4 -1.5
v 4 5.4 -1.6
v 4 6 0
v 4 6 -4
v 0 2 0
v 0 3.5 0
v 0 3.6 0
v 0 3.7 0
v 0 3.8 0
v 0 3.9 0
v 0 4.3 0
v 0 4.9 0
v 0 6 0
v 1.1 3.9 0
v 1.1 4 0
v 1.1 5.3 0
v 1.1 5.4 0
v 1.2 3.9 0
v 1.2 4 0
v 1.2 5.3 0
v 1.2 5.4 0
v 2.4 5.1 0
v 2.4 5.2 0
v 2.5 5.1 0
v 2.5 5.2 0
v 3.6 5.7 0
v 3.6 5.8 0
v 3.7 5.7 0
v 3.7 5.8 0
v 3.9 4.3 0
v 3.9 4.4 0
v 3.9 4.9 0
v 3.9 5 0
v 4 2 0
v 4 3.5 0
v 4 3.6 0
v 4 3.7 0
v 4 3.8 0
v 4 3.9 0
v 4 4.4 0
v 4 5 0
v 4 6 0
v 0 2 -4
v 0 3.5 -4
v 0 3.6 -4
v 0 3.7 -4
v 0 3.8 -4
v 0 3.9 -4
v 0 4.3 -4
v 0 4.9 -4
v 0 5.4 -4
v 0 5.5 -4
v 0 6 -4
v 0.1 5.4 -4
v 0.1 5.5 -4
v 1.7 5.2 -4
v 1.7 5.3 -4
v 1.8 5.2 -4
v 1.8 5.3 -4
v 1.8 5.5 -4
v 1.8 5.6 -4
v 1.9 5.5 -4
v 1.9 5.6 -4
v 2.7 4 -4
v 2.7 4.1 -4
v 2.8 4 -4
v 2.8 4.1 -4
v 3 5.4 -4
v 3 5.5 -4
v 3.1 5.4 -4
v 3.1 5.5 -4
v 3.9 4.3 -4
v 3.9 4.4 -4
v 3.9 4.9 -4
v 3.9 5 -4
v 4 2 -4
v 4 3.5 -4
v 4 3.6 -4
v 4 3.7 -4
v 4 3.8 -4
v 4 3.9 -4
v 4 4.4 -4
v 4 5 -4
v 4 6 -4
v 0 2 0
v 4 2 0
v 0 2 -4
v 4 2 -4
v 0 6 0
v 4 6 0
v 0 6 -4
v 4 6 -4

# faces
f 3/3/1 2/3/1 1/3/1
f 4/3/1 2/3/1 3/3/1
f 5/2/1 4/2/1 3/2/1
f 6/2/1 4/2/1 5/2/1
f 7/3/1 6/3/1 5/3/1
f 8/3/1 6/3/1 7/3/1
f 9/2/1 8/2/1 7/2/1
f 10/2/1 8/2/1 9/2/1
f 11/3/1 10/3/1 9/3/1
f 12/3/1 10/3/1 11/3/1
f 13/2/1 12/2/1 11/2/1
f 14/2/1 12/2/1 13/2/1
f 15/2/1 13/2/1 11/2/1
f 16/2/1 13/2/1 15/2/1
f 17/3/1 14/3/1 13/3/1
f 17/2/1 13/2/1 16/2/1
f 18/2/1 12/2/1 14/2/1
f 18/3/1 14/3/1 17/3/1
f 19/2/1 15/2/1 11/2/1
f 20/3/1 16/3/1 15/3/1
f 20/2/1 15/2/1 19/2/1
f 21/2/1 17/2/1 16/2/1
f 21/3/1 16/3/1 20/3/1
f 21/2/1 18/2/1 17/2/1
f 22/2/1 12/2/1 18/2/1
f 22/2/1 18/2/1 21/2/1
f 23/3/1 20/3/1 19/3/1
f 23/3/1 21/3/1 20/3/1
f 23/3/1 22/3/1 21/3/1
f 24/3/1 22/3/1 23/3/1
f 25/2/1 24/2/1 23/2/1
f 26/2/1 24/2/1 25/2/1
f 27/2/1 25/2/1 23/2/1
f 27/3/1 26/3/1 25/3/1
f 28/2/1 24/2/1 26/2/1
f 28/3/1 26/3/1 27/3/1
f 29/2/1 28/2/1 27/2/1
f 29/2/1 24/2/1 28/2/1
f 30/2/1 24/2/1 29/2/1
f 31/2/1 29/2/1 27/2/1
f 31/3/1 30/3/1 29/3/1
f 32/3/1 30/3/1 31/3/1
f 33/2/1 27/2/1 23/2/1
f 33/2/1 31/2/1 27/2/1
f 33/2/1 32/2/1 31/2/1
f 34/2/1 32/2/1 33/2/1
f 35/3/2 36/3/2 37/3/2
f 37/3/2 36/3/2 38/3/2
f 37/2/2 38/2/2 39/2/2
f 39/2/2 38/2/2 40/2/2
f 39/3/2 40/3/2 41/3/2
f 41/3/2 40/3/2 42/3/2
f 41/2/2 42/2/2 43/2/2
f 43/2/2 42/2/2 44/2/2
f 43/3/2 44/3/2 45/3/2
f 45/3/2 44/3/2 46/3/2
f 45/2/2 46/2/2 47/2/2
f 47/2/2 46/2/2 48/2/2
f 48/2/2 46/2/2 49/2/2
f 49/2/2 46/2/2 50/2/2
f 45/2/2 47/2/2 51/2/2
f 47/3/2 48/3/2 51/3/2
f 48/2/2 49/2/2 52/2/2
f 51/3/2 48/3/2 52/3/2
f 49/3/2 50/3/2 53/3/2
f 52/2/2 49/2/2 53/2/2
f 50/2/2 46/2/2 54/2/2
f 53/3/2 50/3/2 54/3/2
f 52/2/2 53/2/2 55/2/2
f 51/2/2 52/2/2 55/2/2
f 53/2/2 54/2/2 55/2/2
f 45/2/2 51/2/2 55/2/2
f 55/2/2 54/2/2 56/2/2
f 45/2/2 55/2/2 57/2/2
f 55/3/2 56/3/2 58/3/2
f 57/2/2 55/2/2 58/2/2
f 56/2/2 54/2/2 59/2/2
f 58/3/2 56/3/2 59/3/2
f 54/2/2 46/2/2 60/2/2
f 59/2/2 54/2/2 60/2/2
f 58/3/2 59/3/2 61/3/2
f 57/3/2 58/3/2 61/3/2
f 59/3/2 60/3/2 61/3/2
f 61/3/2 60/3/2 62/3/2
f 61/2/2 62/2/2 63/2/2
f 63/2/2 62/2/2 64/2/2
f 61/2/2 63/2/2 65/2/2
f 65/2/2 63/2/2 66/2/2
f 63/3/2 64/3/2 67/3/2
f 66/2/2 63/2/2 67/2/2
f 64/2/2 62/2/2 68/2/2
f 67/3/2 64/3/2 68/3/2
f 68/2/2 62/2/2 69/2/2
f 69/2/2 62/2/2 70/2/2
f 65/3/2 66/3/2 71/3/2
f 61/2/2 65/2/2 71/2/2
f 66/2/2 67/2/2 72/2/2
f 71/3/2 66/3/2 72/3/2
f 67/2/2 68/2/2 72/2/2
f 68/2/2 69/2/2 72/2/2
f 72/2/2 69/2/2 73/2/2
f 73/2/2 69/2/2 74/2/2
f 69/3/2 70/3/2 75/3/2
f 74/2/2 69/2/2 75/2/2
f 70/2/2 62/2/2 76/2/2
f 75/3/2 70/3/2 76/3/2
f 73/3/2 74/3/2 77/3/2
f 71/2/2 72/2/2 77/2/2
f 72/2/2 73/2/2 77/2/2
f 74/2/2 75/2/2 78/2/2
f 77/3/2 74/3/2 78/3/2
f 75/2/2 76/2/2 78/2/2
f 61/2/2 71/2/2 79/2/2
f 71/2/2 77/2/2 79/2/2
f 77/2/2 78/2/2 79/2/2
f 78/2/2 76/2/2 80/2/2
f 79/2/2 78/2/2 80/2/2
f 76/2/2 62/2/2 80/2/2
f 90/3/3 86/3/3 85/3/3
f 90/2/3 87/2/3 86/2/3
f 91/2/3 87/2/3 90/2/3
f 92/2/3 89/2/3 88/2/3
f 93/2/3 89/2/3 92/2/3
f 94/3/3 90/3/3 85/3/3
f 94/3/3 91/3/3 90/3/3
f 95/2/3 87/2/3 91/2/3
f 95/3/3 91/3/3 94/3/3
f 96/3/3 93/3/3 92/3/3
f 96/2/3 92/2/3 88/2/3
f 97/2/3 89/2/3 93/2/3
f 97/3/3 93/3/3 96/3/3
f 98/2/3 96/2/3 88/2/3
f 98/2/3 97/2/3 96/2/3
f 99/2/3 97/2/3 98/2/3
f 100/2/3 98/2/3 88/2/3
f 100/3/3 99/3/3 98/3/3
f 101/2/3 97/2/3 99/2/3
f 101/3/3 99/3/3 100/3/3
f 102/2/3 89/2/3 97/2/3
f 102/2/3 97/2/3 101/2/3
f 102/2/3 101/2/3 100/2/3
f 103/2/3 89/2/3 102/2/3
f 104/2/3 102/2/3 100/2/3
f 104/3/3 103/3/3 102/3/3
f 105/2/3 89/2/3 103/2/3
f 105/3/3 103/3/3 104/3/3
f 106/3/3 88/3/3 87/3/3
f 106/2/3 87/2/3 95/2/3
f 106/2/3 95/2/3 94/2/3
f 107/3/3 88/3/3 106/3/3
f 108/2/3 100/2/3 88/2/3
f 108/3/3 88/3/3 107/3/3
f 108/2/3 105/2/3 104/2/3
f 108/2/3 104/2/3 100/2/3
f 109/2/3 105/2/3 108/2/3
f 110/3/3 82/3/3 81/3/3
f 111/2/3 83/2/3 82/2/3
f 111/3/3 82/3/3 110/3/3
f 112/3/3 84/3/3 83/3/3
f 112/2/3 83/2/3 111/2/3
f 113/2/3 85/2/3 84/2/3
f 113/3/3 84/3/3 112/3/3
f 114/3/3 94/3/3 85/3/3
f 114/2/3 85/2/3 113/2/3
f 115/2/3 107/2/3 106/2/3
f 115/3/3 94/3/3 114/3/3
f 115/2/3 106/2/3 94/2/3
f 116/3/3 109/3/3 108/3/3
f 116/2/3 107/2/3 115/2/3
f 116/3/3 108/3/3 107/3/3
f 117/2/3 105/2/3 109/2/3
f 117/3/3 109/3/3 116/3/3
f 118/2/3 89/2/3 105/2/3
f 118/2/3 105/2/3 117/2/3
f 126/2/4 127/2/4 130/2/4
f 127/3/4 128/3/4 130/3/4
f 128/2/4 129/2/4 131/2/4
f 130/3/4 128/3/4 131/3/4
f 126/2/4 130/2/4 132/2/4
f 130/2/4 131/2/4 132/2/4
f 132/2/4 131/2/4 133/2/4
f 126/2/4 132/2/4 134/2/4
f 132/3/4 133/3/4 134/3/4
f 133/2/4 131/2/4 135/2/4
f 134/3/4 133/3/4 135/3/4
f 131/2/4 129/2/4 136/2/4
f 135/2/4 131/2/4 136/2/4
f 136/2/4 129/2/4 137/2/4
f 134/2/4 135/2/4 138/2/4
f 135/2/4 136/2/4 138/2/4
f 136/3/4 137/3/4 138/3/4
f 137/2/4 129/2/4 139/2/4
f 138/3/4 137/3/4 139/3/4
f 124/2/4 125/2/4 140/2/4
f 140/2/4 125/2/4 141/2/4
f 124/2/4 140/2/4 142/2/4
f 140/3/4 141/3/4 142/3/4
f 141/2/4 125/2/4 143/2/4
f 142/3/4 141/3/4 143/3/4
f 134/2/4 138/2/4 144/2/4
f 138/2/4 139/2/4 144/2/4
f 144/2/4 139/2/4 145/2/4
f 134/2/4 144/2/4 146/2/4
f 144/3/4 145/3/4 146/3/4
f 145/2/4 139/2/4 147/2/4
f 146/3/4 145/3/4 147/3/4
f 125/3/4 126/3/4 148/3/4
f 143/2/4 125/2/4 148/2/4
f 142/2/4 143/2/4 148/2/4
f 148/3/4 126/3/4 149/3/4
f 146/2/4 147/2/4 150/2/4
f 149/3/4 126/3/4 150/3/4
f 126/2/4 134/2/4 150/2/4
f 134/2/4 146/2/4 150/2/4
f 150/2/4 147/2/4 151/2/4
f 119/3/4 120/3/4 152/3/4
f 120/2/4 121/2/4 153/2/4
f 152/3/4 120/3/4 153/3/4
f 121/3/4 122/3/4 154/3/4
f 153/2/4 121/2/4 154/2/4
f 122/2/4 123/2/4 155/2/4
f 154/3/4 122/3/4 155/3/4
f 123/3/4 124/3/4 156/3/4
f 155/2/4 123/2/4 156/2/4
f 148/2/4 149/2/4 157/2/4
f 156/3/4 124/3/4 157/3/4
f 142/2/4 148/2/4 157/2/4
f 124/2/4 142/2/4 157/2/4
f 150/3/4 151/3/4 158/3/4
f 157/2/4 149/2/4 158/2/4
f 149/3/4 150/3/4 158/3/4
f 151/2/4 147/2/4 159/2/4
f 158/3/4 151/3/4 159/3/4
f 139/2/4 129/2/4 160/2/4
f 159/2/4 147/2/4 160/2/4
f 147/2/4 139/2/4 160/2/4
f 163/3/5 162/3/5 161/3/5
f 164/3/5 162/3/5 163/3/5
f 165/2/6 166/2/6 167/2/6
f 167/2/6 166/2/6 168/2/6
